<mxfile host="app.diagrams.net" modified="2021-08-28T07:05:25.353Z" agent="5.0 (Macintosh; Intel Mac OS X 10_15_7) AppleWebKit/537.36 (KHTML, like Gecko) Chrome/92.0.4515.159 Safari/537.36" etag="Sb40tE4lEVWDhxT3Dt_3" version="15.0.3" type="github">
  <diagram id="Fc24wovbdlsAbXFzseOG" name="第 1 页">
    <mxGraphModel dx="1301" dy="824" grid="1" gridSize="10" guides="1" tooltips="1" connect="1" arrows="1" fold="1" page="1" pageScale="1" pageWidth="3300" pageHeight="2339" math="0" shadow="0">
      <root>
        <mxCell id="0" />
        <mxCell id="1" parent="0" />
        <mxCell id="VYAuoYHthQ6iFn3R_5oL-7" value="" style="rounded=1;whiteSpace=wrap;html=1;fillColor=#ffe6cc;strokeColor=#d79b00;" vertex="1" parent="1">
          <mxGeometry x="690" y="750" width="1570" height="830" as="geometry" />
        </mxCell>
        <mxCell id="VYAuoYHthQ6iFn3R_5oL-8" value="listener 9080&lt;br&gt;" style="rounded=1;whiteSpace=wrap;html=1;fillColor=#d5e8d4;strokeColor=#82b366;" vertex="1" parent="1">
          <mxGeometry x="520" y="1120" width="290" height="50" as="geometry" />
        </mxCell>
        <mxCell id="VYAuoYHthQ6iFn3R_5oL-10" value="" style="rounded=1;whiteSpace=wrap;html=1;fillColor=#d5e8d4;strokeColor=#82b366;align=left;" vertex="1" parent="1">
          <mxGeometry x="840" y="780" width="330" height="280" as="geometry" />
        </mxCell>
        <mxCell id="VYAuoYHthQ6iFn3R_5oL-11" value="&lt;span style=&quot;font-family: monospace ; font-size: 13px&quot;&gt;match http2/http1.0/http1.1&lt;br&gt;http-manager&lt;/span&gt;" style="rounded=1;whiteSpace=wrap;html=1;align=center;" vertex="1" parent="1">
          <mxGeometry x="910" y="850" width="190" height="170" as="geometry" />
        </mxCell>
        <mxCell id="VYAuoYHthQ6iFn3R_5oL-13" style="edgeStyle=orthogonalEdgeStyle;curved=1;orthogonalLoop=1;jettySize=auto;html=1;exitX=0.5;exitY=1;exitDx=0;exitDy=0;" edge="1" parent="1" source="VYAuoYHthQ6iFn3R_5oL-10" target="VYAuoYHthQ6iFn3R_5oL-10">
          <mxGeometry relative="1" as="geometry" />
        </mxCell>
        <mxCell id="VYAuoYHthQ6iFn3R_5oL-14" value="&lt;font style=&quot;font-size: 22px&quot;&gt;filter chains&lt;/font&gt;" style="text;html=1;strokeColor=none;fillColor=none;align=center;verticalAlign=middle;whiteSpace=wrap;rounded=0;" vertex="1" parent="1">
          <mxGeometry x="850" y="790" width="140" height="40" as="geometry" />
        </mxCell>
        <mxCell id="VYAuoYHthQ6iFn3R_5oL-15" value="&lt;font style=&quot;font-size: 17px&quot;&gt;http filter&lt;/font&gt;" style="text;html=1;strokeColor=none;fillColor=none;align=center;verticalAlign=middle;whiteSpace=wrap;rounded=0;" vertex="1" parent="1">
          <mxGeometry x="920" y="860" width="90" height="30" as="geometry" />
        </mxCell>
        <mxCell id="VYAuoYHthQ6iFn3R_5oL-36" value="prefix /" style="edgeStyle=orthogonalEdgeStyle;curved=1;orthogonalLoop=1;jettySize=auto;html=1;exitX=1;exitY=0.5;exitDx=0;exitDy=0;entryX=0;entryY=0.5;entryDx=0;entryDy=0;" edge="1" parent="1" source="VYAuoYHthQ6iFn3R_5oL-16" target="VYAuoYHthQ6iFn3R_5oL-17">
          <mxGeometry relative="1" as="geometry">
            <Array as="points">
              <mxPoint x="1890" y="795" />
              <mxPoint x="1890" y="815" />
            </Array>
          </mxGeometry>
        </mxCell>
        <mxCell id="VYAuoYHthQ6iFn3R_5oL-16" value="domain *" style="rounded=1;whiteSpace=wrap;html=1;" vertex="1" parent="1">
          <mxGeometry x="1405" y="780" width="255" height="30" as="geometry" />
        </mxCell>
        <mxCell id="VYAuoYHthQ6iFn3R_5oL-17" value="&lt;span style=&quot;color: rgb(11 , 117 , 0) ; font-family: monospace ; font-size: 13px&quot;&gt;PassthroughCluster&lt;/span&gt;" style="rounded=1;whiteSpace=wrap;html=1;" vertex="1" parent="1">
          <mxGeometry x="2120" y="770" width="270" height="90" as="geometry" />
        </mxCell>
        <mxCell id="VYAuoYHthQ6iFn3R_5oL-18" value="&lt;span style=&quot;color: rgb(11 , 117 , 0) ; font-family: monospace ; font-size: 13px&quot;&gt;outbound|9080||details&lt;br&gt;.default.svc.cluster.loca&lt;/span&gt;" style="rounded=1;whiteSpace=wrap;html=1;" vertex="1" parent="1">
          <mxGeometry x="2120" y="940" width="270" height="90" as="geometry" />
        </mxCell>
        <mxCell id="VYAuoYHthQ6iFn3R_5oL-19" value="&lt;span style=&quot;color: rgb(11 , 117 , 0) ; font-family: monospace ; font-size: 13px&quot;&gt;outbound|9080||productpage.&lt;br&gt;default.svc.cluster.local&lt;/span&gt;" style="rounded=1;whiteSpace=wrap;html=1;" vertex="1" parent="1">
          <mxGeometry x="2120" y="1110" width="270" height="90" as="geometry" />
        </mxCell>
        <mxCell id="VYAuoYHthQ6iFn3R_5oL-20" value="&lt;span style=&quot;color: rgb(11 , 117 , 0) ; font-family: monospace ; font-size: 13px&quot;&gt;outbound|9080||ratings.&lt;br&gt;default.svc.cluster.local&lt;/span&gt;" style="rounded=1;whiteSpace=wrap;html=1;" vertex="1" parent="1">
          <mxGeometry x="2120" y="1280" width="270" height="90" as="geometry" />
        </mxCell>
        <mxCell id="VYAuoYHthQ6iFn3R_5oL-21" value="&lt;span style=&quot;color: rgb(11 , 117 , 0) ; font-family: monospace ; font-size: 13px&quot;&gt;outbound|9080||ratings.&lt;br&gt;default.svc.cluster.local&lt;/span&gt;" style="rounded=1;whiteSpace=wrap;html=1;" vertex="1" parent="1">
          <mxGeometry x="2120" y="1440" width="270" height="90" as="geometry" />
        </mxCell>
        <mxCell id="VYAuoYHthQ6iFn3R_5oL-23" value="&lt;font style=&quot;font-size: 17px&quot;&gt;allow any&lt;/font&gt;" style="text;html=1;strokeColor=none;fillColor=none;align=center;verticalAlign=middle;whiteSpace=wrap;rounded=0;" vertex="1" parent="1">
          <mxGeometry x="1470" y="760" width="120" height="20" as="geometry" />
        </mxCell>
        <mxCell id="VYAuoYHthQ6iFn3R_5oL-24" value="&lt;span style=&quot;font-family: monospace&quot;&gt;&lt;font style=&quot;font-size: 17px&quot;&gt;details.default.svc.cluster.local:9080&lt;/font&gt;&lt;/span&gt;" style="text;html=1;strokeColor=none;fillColor=none;align=center;verticalAlign=middle;whiteSpace=wrap;rounded=0;" vertex="1" parent="1">
          <mxGeometry x="1460" y="820" width="170" height="10" as="geometry" />
        </mxCell>
        <mxCell id="VYAuoYHthQ6iFn3R_5oL-37" value="prefix /" style="edgeStyle=orthogonalEdgeStyle;curved=1;orthogonalLoop=1;jettySize=auto;html=1;entryX=0;entryY=0.5;entryDx=0;entryDy=0;" edge="1" parent="1" source="VYAuoYHthQ6iFn3R_5oL-26" target="VYAuoYHthQ6iFn3R_5oL-18">
          <mxGeometry relative="1" as="geometry" />
        </mxCell>
        <mxCell id="VYAuoYHthQ6iFn3R_5oL-26" value="&lt;span&gt;domain&lt;/span&gt;&lt;br&gt;&lt;span&gt;details.default.svc.cluster.local&lt;/span&gt;&lt;br&gt;&lt;span&gt;details.default.svc.cluster.local:9080&lt;/span&gt;&lt;br&gt;&lt;span&gt;details&lt;/span&gt;&lt;br&gt;&lt;span&gt;details:9080&lt;/span&gt;&lt;br&gt;&lt;span&gt;details.default.svc&lt;/span&gt;&lt;br&gt;&lt;span&gt;details.default.svc:9080&lt;/span&gt;&lt;br&gt;&lt;span&gt;details.default&lt;/span&gt;&lt;br&gt;&lt;span&gt;details.default:9080&lt;/span&gt;&lt;br&gt;&lt;span&gt;10.105.31.21&lt;/span&gt;&lt;br&gt;&lt;span&gt;10.105.31.21:9080&lt;/span&gt;" style="rounded=1;whiteSpace=wrap;html=1;align=center;" vertex="1" parent="1">
          <mxGeometry x="1405" y="845" width="255" height="150" as="geometry" />
        </mxCell>
        <mxCell id="VYAuoYHthQ6iFn3R_5oL-38" value="prefix /" style="edgeStyle=orthogonalEdgeStyle;curved=1;orthogonalLoop=1;jettySize=auto;html=1;" edge="1" parent="1" source="VYAuoYHthQ6iFn3R_5oL-27" target="VYAuoYHthQ6iFn3R_5oL-19">
          <mxGeometry relative="1" as="geometry" />
        </mxCell>
        <mxCell id="VYAuoYHthQ6iFn3R_5oL-27" value="&lt;span&gt;domain&lt;/span&gt;&lt;br&gt;&lt;span&gt;productpage.default.svc.cluster.local&lt;/span&gt;&lt;br&gt;&lt;span&gt;productpage.default.svc.cluster.local:9080&lt;/span&gt;&lt;br&gt;&lt;span&gt;productpage&lt;/span&gt;&lt;br&gt;&lt;span&gt;productpage:9080&lt;/span&gt;&lt;br&gt;&lt;span&gt;productpage.default.svc&lt;/span&gt;&lt;br&gt;&lt;span&gt;productpage.default.svc:9080&lt;/span&gt;&lt;br&gt;&lt;span&gt;productpage.default&lt;/span&gt;&lt;br&gt;&lt;span&gt;productpage.default:9080&lt;/span&gt;&lt;br&gt;&lt;span&gt;10.108.37.235&lt;/span&gt;&lt;br&gt;&lt;span&gt;10.108.37.235:9080&lt;/span&gt;" style="rounded=1;whiteSpace=wrap;html=1;align=center;" vertex="1" parent="1">
          <mxGeometry x="1405" y="1030" width="255" height="150" as="geometry" />
        </mxCell>
        <mxCell id="VYAuoYHthQ6iFn3R_5oL-28" value="&lt;span style=&quot;font-family: monospace&quot;&gt;&lt;font style=&quot;font-size: 17px&quot;&gt;productpage.default.svc.cluster.local:9080&lt;/font&gt;&lt;/span&gt;" style="text;html=1;strokeColor=none;fillColor=none;align=center;verticalAlign=middle;whiteSpace=wrap;rounded=0;" vertex="1" parent="1">
          <mxGeometry x="1397.5" y="1000" width="270" height="20" as="geometry" />
        </mxCell>
        <mxCell id="VYAuoYHthQ6iFn3R_5oL-40" value="prefix /" style="edgeStyle=orthogonalEdgeStyle;curved=1;orthogonalLoop=1;jettySize=auto;html=1;" edge="1" parent="1" source="VYAuoYHthQ6iFn3R_5oL-29" target="VYAuoYHthQ6iFn3R_5oL-20">
          <mxGeometry relative="1" as="geometry" />
        </mxCell>
        <mxCell id="VYAuoYHthQ6iFn3R_5oL-29" value="&lt;span&gt;domain&lt;/span&gt;&lt;br&gt;&lt;span&gt;ratings.default.svc.cluster.local&lt;/span&gt;&lt;br&gt;&lt;span&gt;ratings.default.svc.cluster.local:9080&lt;/span&gt;&lt;br&gt;&lt;span&gt;ratings&lt;/span&gt;&lt;br&gt;&lt;span&gt;ratings:9080&lt;/span&gt;&lt;br&gt;&lt;span&gt;ratings.default.svc&lt;/span&gt;&lt;br&gt;&lt;span&gt;ratings.default.svc:9080&lt;/span&gt;&lt;br&gt;&lt;span&gt;ratings.default&lt;/span&gt;&lt;br&gt;&lt;span&gt;ratings.default:9080&lt;/span&gt;&lt;br&gt;&lt;span&gt;10.109.119.216&lt;/span&gt;&lt;br&gt;&lt;span&gt;10.109.119.216:9080&lt;/span&gt;" style="rounded=1;whiteSpace=wrap;html=1;align=center;" vertex="1" parent="1">
          <mxGeometry x="1402.5" y="1220" width="255" height="150" as="geometry" />
        </mxCell>
        <mxCell id="VYAuoYHthQ6iFn3R_5oL-30" value="&lt;span style=&quot;font-family: monospace&quot;&gt;&lt;font style=&quot;font-size: 17px&quot;&gt;ratings.default.svc.cluster.local:9080&lt;/font&gt;&lt;/span&gt;" style="text;html=1;strokeColor=none;fillColor=none;align=center;verticalAlign=middle;whiteSpace=wrap;rounded=0;" vertex="1" parent="1">
          <mxGeometry x="1397.5" y="1190" width="270" height="20" as="geometry" />
        </mxCell>
        <mxCell id="VYAuoYHthQ6iFn3R_5oL-41" value="prefix /" style="edgeStyle=orthogonalEdgeStyle;curved=1;orthogonalLoop=1;jettySize=auto;html=1;" edge="1" parent="1" source="VYAuoYHthQ6iFn3R_5oL-31" target="VYAuoYHthQ6iFn3R_5oL-21">
          <mxGeometry relative="1" as="geometry" />
        </mxCell>
        <mxCell id="VYAuoYHthQ6iFn3R_5oL-31" value="&lt;span&gt;domain&lt;/span&gt;&lt;br&gt;&lt;span&gt;reviews.default.svc.cluster.local&lt;/span&gt;&lt;br&gt;&lt;span&gt;reviews.default.svc.cluster.local:9080&lt;/span&gt;&lt;br&gt;&lt;span&gt;reviews&lt;/span&gt;&lt;br&gt;&lt;span&gt;reviews:9080&lt;/span&gt;&lt;br&gt;&lt;span&gt;reviews.default.svc&lt;/span&gt;&lt;br&gt;&lt;span&gt;reviews.default.svc:9080&lt;/span&gt;&lt;br&gt;&lt;span&gt;reviews.default&lt;/span&gt;&lt;br&gt;&lt;span&gt;reviews.default:9080&lt;/span&gt;&lt;br&gt;&lt;span&gt;10.97.102.0&lt;/span&gt;&lt;br&gt;&lt;span&gt;10.97.102.0:9080&lt;/span&gt;" style="rounded=1;whiteSpace=wrap;html=1;align=center;" vertex="1" parent="1">
          <mxGeometry x="1402.5" y="1420" width="255" height="150" as="geometry" />
        </mxCell>
        <mxCell id="VYAuoYHthQ6iFn3R_5oL-32" value="&lt;span style=&quot;font-family: monospace&quot;&gt;&lt;font style=&quot;font-size: 17px&quot;&gt;reviews.default.svc.cluster.local:9080&lt;/font&gt;&lt;/span&gt;" style="text;html=1;strokeColor=none;fillColor=none;align=center;verticalAlign=middle;whiteSpace=wrap;rounded=0;" vertex="1" parent="1">
          <mxGeometry x="1395" y="1390" width="270" height="20" as="geometry" />
        </mxCell>
        <mxCell id="VYAuoYHthQ6iFn3R_5oL-35" value="" style="rounded=1;whiteSpace=wrap;html=1;opacity=30;fillColor=#e1d5e7;strokeColor=#9673a6;dashed=1;strokeWidth=3;" vertex="1" parent="1">
          <mxGeometry x="1270" y="670" width="760" height="930" as="geometry" />
        </mxCell>
        <mxCell id="VYAuoYHthQ6iFn3R_5oL-42" value="&lt;span style=&quot;font-family: monospace&quot;&gt;&lt;font style=&quot;font-size: 18px&quot;&gt;virtual_hosts&lt;/font&gt;&lt;/span&gt;" style="text;html=1;strokeColor=none;fillColor=none;align=center;verticalAlign=middle;whiteSpace=wrap;rounded=0;dashed=1;opacity=30;" vertex="1" parent="1">
          <mxGeometry x="1340" y="710" width="40" height="20" as="geometry" />
        </mxCell>
        <mxCell id="VYAuoYHthQ6iFn3R_5oL-44" value="" style="rounded=1;whiteSpace=wrap;html=1;dashed=1;strokeWidth=3;opacity=30;strokeColor=#b85450;fillColor=#f8cecc;" vertex="1" parent="1">
          <mxGeometry x="1230" y="600" width="830" height="1020" as="geometry" />
        </mxCell>
        <mxCell id="VYAuoYHthQ6iFn3R_5oL-45" value="&lt;font style=&quot;font-size: 22px&quot;&gt;route 9080 RDS&lt;/font&gt;" style="text;html=1;strokeColor=none;fillColor=none;align=center;verticalAlign=middle;whiteSpace=wrap;rounded=0;dashed=1;opacity=30;" vertex="1" parent="1">
          <mxGeometry x="1300" y="630" width="120" height="30" as="geometry" />
        </mxCell>
        <mxCell id="VYAuoYHthQ6iFn3R_5oL-46" value="" style="rounded=0;whiteSpace=wrap;html=1;dashed=1;strokeWidth=3;fillColor=#60a917;opacity=30;strokeColor=#2D7600;fontColor=#ffffff;" vertex="1" parent="1">
          <mxGeometry x="1350" y="730" width="740" height="90" as="geometry" />
        </mxCell>
      </root>
    </mxGraphModel>
  </diagram>
</mxfile>
